<svg xmlns="http://www.w3.org/2000/svg" width="400" height="600" viewBox="0 0 400 600">
<defs>
<linearGradient id="bg" x1="0" y1="0" x2="0" y2="1">
<stop offset="0" stop-color="#1f1f22"/><stop offset="1" stop-color="#161618"/>
</linearGradient>
<radialGradient id="spot" cx="0.5" cy="0.05" r="0.75">
<stop offset="0" stop-color="#ffffff" stop-opacity="0.16"/>
<stop offset="1" stop-color="#ffffff" stop-opacity="0"/>
</radialGradient>
</defs>
<rect x="0.5" y="0.5" width="399" height="599" rx="16" fill="url(#bg)" stroke="#000000" stroke-opacity="0.4"/>
<text x="200.0" y="70" font-family="SF Pro Display, -apple-system, Helvetica, Arial, sans-serif" font-size="26" font-weight="600" fill="#ffffff" text-anchor="middle">Install Perch</text>
<text x="200.0" y="96" font-family="SF Pro Text, -apple-system, Helvetica, Arial, sans-serif" font-size="13" font-weight="400" fill="#98989f" text-anchor="middle">Drag Perch into your Applications folder</text>
<g transform="translate(120,200)"><rect x="-46" y="-46" width="92" height="92" rx="20" fill="#2c2c30" stroke="#444"/><rect x="-26" y="-30" width="52" height="34" rx="10" fill="#3a1d22"/><circle cx="0" cy="-8" r="11" fill="#6f4b86"/><rect x="-15" y="14" width="30" height="8" rx="4" fill="#0A84FF"/></g>
<text x="120" y="270" font-family="SF Pro Text, -apple-system, Helvetica, Arial, sans-serif" font-size="13" font-weight="600" fill="#ffffff" text-anchor="middle">Perch</text>
<g stroke="#0A84FF" stroke-width="3" fill="none" stroke-linecap="round"><line x1="172" y1="200" x2="226" y2="200"/><path d="M218 191 l10 9 -10 9"/></g>
<g transform="translate(280,200)"><path d="M-44 -30 h28 l8 9 h8 a8 8 0 0 1 8 8 v34 a8 8 0 0 1 -8 8 h-52 a8 8 0 0 1 -8 -8 v-43 a8 8 0 0 1 8 -8 z" fill="#2c2c30" stroke="#4a90d9"/><circle cx="0" cy="6" r="13" fill="none" stroke="#7fb3e8" stroke-width="2"/><line x1="0" y1="6" x2="0" y2="-7" stroke="#7fb3e8" stroke-width="2"/></g>
<text x="280" y="270" font-family="SF Pro Text, -apple-system, Helvetica, Arial, sans-serif" font-size="13" font-weight="600" fill="#ffffff" text-anchor="middle">Applications</text>
<rect x="100.0" y="470" width="200" height="34" rx="8" fill="#0A84FF"/>
<text x="200.0" y="492.0" font-family="SF Pro Text, -apple-system, Helvetica, Arial, sans-serif" font-size="14" font-weight="600" fill="#ffffff" text-anchor="middle">Open Perch</text>
<text x="200.0" y="540" font-family="SF Pro Text, -apple-system, Helvetica, Arial, sans-serif" font-size="11" font-weight="400" fill="#6b6b71" text-anchor="middle">v1.0  ·  the Boring Team</text>
</svg>
