<svg xmlns="http://www.w3.org/2000/svg" width="400" height="600" viewBox="0 0 400 600">
<defs>
<linearGradient id="bg" x1="0" y1="0" x2="0" y2="1">
<stop offset="0" stop-color="#1f1f22"/><stop offset="1" stop-color="#161618"/>
</linearGradient>
<radialGradient id="spot" cx="0.5" cy="0.05" r="0.75">
<stop offset="0" stop-color="#ffffff" stop-opacity="0.16"/>
<stop offset="1" stop-color="#ffffff" stop-opacity="0"/>
</radialGradient>
</defs>
<rect x="0.5" y="0.5" width="399" height="599" rx="16" fill="url(#bg)" stroke="#000000" stroke-opacity="0.4"/>
<circle cx="200.0" cy="130" r="44" fill="#0A84FF" fill-opacity="0.14"/><g transform="translate(200.0,130)" stroke="#0A84FF" fill="none" stroke-width="2.4" stroke-linecap="round" stroke-linejoin="round"><path d="M-14 -10 h22 M-14 0 h22 M-14 10 h14"/><path d="M-18 -10 l-1 -1" /><circle cx="-17" cy="-10" r="1.4"/><circle cx="-17" cy="0" r="1.4"/><circle cx="-17" cy="10" r="1.4"/></g>
<rect x="171.2" y="196" width="57.6" height="18" rx="9" fill="none" stroke="#3a3a3e" stroke-width="1"/><text x="200.0" y="209" font-family="SF Pro Text, -apple-system, Helvetica, Arial, sans-serif" font-size="10" font-weight="600" fill="#6b6b71" text-anchor="middle" letter-spacing="0.4">OPTIONAL</text>
<text x="200.0" y="230" font-family="SF Pro Display, -apple-system, Helvetica, Arial, sans-serif" font-size="23" font-weight="600" fill="#ffffff" text-anchor="middle">Show your reminders</text>
<text x="200.0" y="266" font-family="SF Pro Text, -apple-system, Helvetica, Arial, sans-serif" font-size="13" font-weight="400" fill="#98989f" text-anchor="middle">Glance at your reminders next to your</text>
<text x="200.0" y="286" font-family="SF Pro Text, -apple-system, Helvetica, Arial, sans-serif" font-size="13" font-weight="400" fill="#98989f" text-anchor="middle">events, and check them off without</text>
<text x="200.0" y="306" font-family="SF Pro Text, -apple-system, Helvetica, Arial, sans-serif" font-size="13" font-weight="400" fill="#98989f" text-anchor="middle">leaving what you're doing.</text>
<g transform="translate(115.075,343)" stroke="#6b6b71" fill="none" stroke-width="1.4"><path d="M6 1 L11 3 V7 C11 10 8.5 12 6 13 C3.5 12 1 10 1 7 V3 Z"/><rect x="3.6" y="6" width="4.8" height="4" rx="1" fill="#6b6b71" stroke="none"/></g><text x="135.075" y="356" font-family="SF Pro Text, -apple-system, Helvetica, Arial, sans-serif" font-size="11" font-weight="400" fill="#6b6b71" text-anchor="start">Reminders stay on your Mac.</text>
<rect x="62.0" y="486" width="132" height="34" rx="8" fill="none" stroke="#3a3a3e" stroke-width="1.5"/>
<text x="128.0" y="508.0" font-family="SF Pro Text, -apple-system, Helvetica, Arial, sans-serif" font-size="14" font-weight="500" fill="#ffffff" text-anchor="middle">Not Now</text>
<rect x="206.0" y="486" width="132" height="34" rx="8" fill="#0A84FF"/>
<text x="272.0" y="508.0" font-family="SF Pro Text, -apple-system, Helvetica, Arial, sans-serif" font-size="14" font-weight="600" fill="#ffffff" text-anchor="middle">Allow Access</text>
</svg>
