<svg xmlns="http://www.w3.org/2000/svg" width="400" height="600" viewBox="0 0 400 600">
<defs>
<linearGradient id="bg" x1="0" y1="0" x2="0" y2="1">
<stop offset="0" stop-color="#1f1f22"/><stop offset="1" stop-color="#161618"/>
</linearGradient>
<radialGradient id="spot" cx="0.5" cy="0.05" r="0.75">
<stop offset="0" stop-color="#ffffff" stop-opacity="0.16"/>
<stop offset="1" stop-color="#ffffff" stop-opacity="0"/>
</radialGradient>
</defs>
<rect x="0.5" y="0.5" width="399" height="599" rx="16" fill="url(#bg)" stroke="#000000" stroke-opacity="0.4"/>
<circle cx="200.0" cy="150" r="50" fill="#0A84FF" fill-opacity="0.14"/><g transform="translate(200.0,150)" stroke="#0A84FF" fill="none" stroke-width="2.4" stroke-linecap="round" stroke-linejoin="round"><path d="M0 -18 C2 -6 6 -2 18 0 C6 2 2 6 0 18 C-2 6 -6 2 -18 0 C-6 -2 -2 -6 0 -18 Z"/><path d="M14 -16 l0.8 2.5 2.5 0.8 -2.5 0.8 -0.8 2.5 -0.8 -2.5 -2.5 -0.8 2.5 -0.8 z"/></g>
<text x="200.0" y="270" font-family="SF Pro Display, -apple-system, Helvetica, Arial, sans-serif" font-size="30" font-weight="700" fill="#ffffff" text-anchor="middle">You're all set!</text>
<text x="200.0" y="308" font-family="SF Pro Text, -apple-system, Helvetica, Arial, sans-serif" font-size="13" font-weight="400" fill="#98989f" text-anchor="middle">Perch is ready. You can fine-tune any</text>
<text x="200.0" y="329" font-family="SF Pro Text, -apple-system, Helvetica, Arial, sans-serif" font-size="13" font-weight="400" fill="#98989f" text-anchor="middle">of this later in Settings.</text>
<rect x="85.0" y="430" width="230" height="34" rx="8" fill="none" stroke="#3a3a3e" stroke-width="1.5"/>
<text x="200.0" y="452.0" font-family="SF Pro Text, -apple-system, Helvetica, Arial, sans-serif" font-size="14" font-weight="500" fill="#ffffff" text-anchor="middle">Customize in Settings</text>
<rect x="85.0" y="476" width="230" height="34" rx="8" fill="#0A84FF"/>
<text x="200.0" y="498.0" font-family="SF Pro Text, -apple-system, Helvetica, Arial, sans-serif" font-size="14" font-weight="600" fill="#ffffff" text-anchor="middle">Finish</text>
</svg>
