<svg xmlns="http://www.w3.org/2000/svg" viewBox="-6 -6 227 358" fill="#000000" fill-rule="evenodd" role="img" aria-label="Perch owl mark">
  <path d="M 38.00 3.00 C 49.33 7.67 60.67 12.33 72.00 17.00 C 88.17 13.67 104.33 7.00 120.50 7.00 C 136.67 7.00 152.83 13.67 169.00 17.00 C 180.33 12.33 191.67 7.67 203.00 3.00 C 203.00 8.00 204.00 11.83 203.00 18.00 C 202.00 24.17 196.17 31.67 197.00 40.00 C 197.83 48.33 205.33 58.33 208.00 68.00 C 210.67 77.67 212.17 89.33 213.00 98.00 C 213.83 106.67 213.00 107.17 213.00 120.00 C 213.00 132.83 214.67 157.50 213.00 175.00 C 211.33 192.50 208.50 210.00 203.00 225.00 C 197.50 240.00 188.83 252.50 180.00 265.00 C 171.17 277.50 150.50 286.67 150.00 300.00 C 149.50 313.33 168.00 330.00 177.00 345.00 C 144.33 345.00 111.67 345.00 79.00 345.00 C 79.33 332.67 72.83 318.00 80.00 308.00 C 87.17 298.00 108.33 295.00 122.00 285.00 C 135.67 275.00 151.17 261.00 162.00 248.00 C 172.83 235.00 181.67 220.83 187.00 207.00 C 192.33 193.17 193.00 174.50 194.00 165.00 C 195.00 155.50 195.33 159.50 193.00 150.00 C 190.67 140.50 180.17 121.33 180.00 108.00 C 179.83 94.67 191.00 80.00 192.00 70.00 C 193.00 60.00 189.67 53.00 186.00 48.00 C 182.33 43.00 174.83 42.00 170.00 40.00 C 165.17 38.00 161.83 35.17 157.00 36.00 C 152.17 36.83 146.00 42.00 141.00 45.00 C 136.00 48.00 130.42 52.00 127.00 54.00 C 123.58 56.00 122.67 57.00 120.50 57.00 C 118.33 57.00 117.42 56.00 114.00 54.00 C 110.58 52.00 105.00 48.00 100.00 45.00 C 95.00 42.00 88.83 36.83 84.00 36.00 C 79.17 35.17 75.83 38.00 71.00 40.00 C 66.17 42.00 58.67 43.00 55.00 48.00 C 51.33 53.00 48.00 60.00 49.00 70.00 C 50.00 80.00 57.50 97.17 61.00 108.00 C 64.50 118.83 61.33 127.67 70.00 135.00 C 78.67 142.33 102.83 141.17 113.00 152.00 C 123.17 162.83 129.83 184.50 131.00 200.00 C 132.17 215.50 125.17 231.33 120.00 245.00 C 114.83 258.67 107.50 271.17 100.00 282.00 C 92.50 292.83 82.17 299.50 75.00 310.00 C 67.83 320.50 63.00 333.33 57.00 345.00 C 38.33 345.00 19.67 345.00 1.00 345.00 C 0.67 330.00 -0.17 315.83 0.00 300.00 C 0.17 284.17 0.67 266.67 2.00 250.00 C 3.33 233.33 5.00 215.33 8.00 200.00 C 11.00 184.67 16.17 170.00 20.00 158.00 C 23.83 146.00 27.17 134.83 31.00 128.00 C 34.83 121.17 39.00 120.67 43.00 117.00 C 39.67 112.33 36.33 107.67 33.00 103.00 C 31.33 101.33 28.00 103.83 28.00 98.00 C 28.00 92.17 30.33 77.67 33.00 68.00 C 35.67 58.33 43.17 48.33 44.00 40.00 C 44.83 31.67 40.00 25.33 38.00 18.00 C 38.00 13.00 38.00 8.00 38.00 3.00 Z M 98.13 68.98 C 98.56 70.71 98.69 72.66 98.50 74.40 C 98.31 76.15 97.76 77.97 96.97 79.47 C 96.18 80.97 95.03 82.37 93.77 83.39 C 92.51 84.41 90.93 85.20 89.39 85.58 C 87.84 85.97 86.08 86.01 84.49 85.71 C 82.89 85.40 81.22 84.70 79.82 83.74 C 78.42 82.79 77.08 81.45 76.09 79.99 C 75.10 78.54 74.30 76.76 73.87 75.02 C 73.44 73.29 73.31 71.34 73.50 69.60 C 73.69 67.85 74.24 66.03 75.03 64.53 C 75.82 63.03 76.97 61.63 78.23 60.61 C 79.49 59.59 81.07 58.80 82.61 58.42 C 84.16 58.03 85.92 57.99 87.51 58.29 C 89.11 58.60 90.78 59.30 92.18 60.26 C 93.58 61.21 94.92 62.55 95.91 64.01 C 96.90 65.46 97.70 67.24 98.13 68.98 Z M 167.13 75.02 C 166.70 76.76 165.90 78.54 164.91 79.99 C 163.92 81.45 162.58 82.79 161.18 83.74 C 159.78 84.70 158.11 85.40 156.51 85.71 C 154.92 86.01 153.16 85.97 151.61 85.58 C 150.07 85.20 148.49 84.41 147.23 83.39 C 145.97 82.37 144.82 80.97 144.03 79.47 C 143.24 77.97 142.69 76.15 142.50 74.40 C 142.31 72.66 142.44 70.71 142.87 68.98 C 143.30 67.24 144.10 65.46 145.09 64.01 C 146.08 62.55 147.42 61.21 148.82 60.26 C 150.22 59.30 151.89 58.60 153.49 58.29 C 155.08 57.99 156.84 58.03 158.39 58.42 C 159.93 58.80 161.51 59.59 162.77 60.61 C 164.03 61.63 165.18 63.03 165.97 64.53 C 166.76 66.03 167.31 67.85 167.50 69.60 C 167.69 71.34 167.56 73.29 167.13 75.02 Z M 120.50 84.00 C 124.33 89.00 128.17 94.00 132.00 99.00 C 128.17 105.67 124.33 112.33 120.50 119.00 C 116.67 112.33 112.83 105.67 109.00 99.00 C 112.83 94.00 116.67 89.00 120.50 84.00 Z"/>
</svg>
