<svg xmlns="http://www.w3.org/2000/svg" width="400" height="600" viewBox="0 0 400 600"><defs>
<linearGradient id="backdrop" x1="0" y1="0" x2="0" y2="1">
<stop offset="0" stop-color="#0a0a0e"/><stop offset="1" stop-color="#050506"/>
</linearGradient>
<radialGradient id="halo" cx="0.5" cy="0.0" r="0.7">
<stop offset="0" stop-color="#2c5cff" stop-opacity="0.16"/>
<stop offset="1" stop-color="#2c5cff" stop-opacity="0"/>
</radialGradient>
<linearGradient id="topline" x1="0" y1="0" x2="1" y2="0">
<stop offset="0" stop-color="#ffffff" stop-opacity="0"/>
<stop offset="0.5" stop-color="#ffffff" stop-opacity="0.12"/>
<stop offset="1" stop-color="#ffffff" stop-opacity="0"/>
</linearGradient>
</defs><rect x="0" y="0" width="400" height="600" fill="#050506"/><ellipse cx="200" cy="-10" rx="240" ry="150" fill="url(#halo)"/><path d="M88,0 H312 A18,18 0 0 1 330,18 V192 A40,40 0 0 1 290,232 H110 A40,40 0 0 1 70,192 V18 A18,18 0 0 1 88,0 Z" fill="#0b0b0d" stroke="#ffffff" stroke-opacity="0.08"/><rect x="158" y="9" width="84" height="17" rx="8.5" fill="#000000"/><circle cx="200" cy="17.5" r="2.1" fill="#23232a"/><circle cx="200" cy="72" r="24" fill="none" stroke="#ffffff" stroke-opacity="0.09"/><g transform="translate(200,72)" stroke="#ededf0" fill="none" stroke-width="2" stroke-linecap="round" stroke-linejoin="round"><circle cx="0" cy="-11" r="3"/><path d="M-11 -3 h22"/><path d="M0 -3 V7"/><path d="M-7 15 L0 6 L7 15"/></g><text x="200" y="122" font-family="SF Pro Display, -apple-system, Helvetica, Arial, sans-serif" font-size="17" font-weight="600" fill="#f3f3f5" text-anchor="middle" letter-spacing="-0.3">Let Perch finish the job?</text><text x="200" y="148" font-family="SF Pro Text, -apple-system, Helvetica, Arial, sans-serif" font-size="13.5" fill="#8b8b92" text-anchor="middle">Needs Accessibility — just this once.</text><rect x="92" y="168" width="98" height="38" rx="19" fill="none" stroke="#ffffff" stroke-opacity="0.16" stroke-width="1.5"/><text x="141" y="192" font-family="SF Pro Text, -apple-system, Helvetica, Arial, sans-serif" font-size="13.5" font-weight="500" fill="#e8e8ea" text-anchor="middle">Not now</text><rect x="200" y="168" width="110" height="38" rx="19" fill="#0A84FF"/><text x="255" y="192" font-family="SF Pro Text, -apple-system, Helvetica, Arial, sans-serif" font-size="13.5" font-weight="600" fill="#ffffff" text-anchor="middle">Allow</text><text x="200" y="300" font-family="SF Pro Text, -apple-system, Helvetica, Arial, sans-serif" font-size="11" fill="#5c5c63" text-anchor="middle">Asked only when a task needs it — never during setup.</text><text x="200" y="328" font-family="SF Pro Text, -apple-system, Helvetica, Arial, sans-serif" font-size="10.5" fill="#46464c" text-anchor="middle" letter-spacing="0.3">Screen Recording · Accessibility · Automation · Reminders</text></svg>
