<svg xmlns="http://www.w3.org/2000/svg" width="400" height="600" viewBox="0 0 400 600"><defs>
<linearGradient id="backdrop" x1="0" y1="0" x2="0" y2="1">
<stop offset="0" stop-color="#0a0a0e"/><stop offset="1" stop-color="#050506"/>
</linearGradient>
<radialGradient id="halo" cx="0.5" cy="0.0" r="0.7">
<stop offset="0" stop-color="#2c5cff" stop-opacity="0.16"/>
<stop offset="1" stop-color="#2c5cff" stop-opacity="0"/>
</radialGradient>
<linearGradient id="topline" x1="0" y1="0" x2="1" y2="0">
<stop offset="0" stop-color="#ffffff" stop-opacity="0"/>
<stop offset="0.5" stop-color="#ffffff" stop-opacity="0.12"/>
<stop offset="1" stop-color="#ffffff" stop-opacity="0"/>
</linearGradient>
</defs><rect x="0" y="0" width="400" height="600" rx="0" fill="url(#backdrop)"/><ellipse cx="200" cy="-10" rx="240" ry="150" fill="url(#halo)"/><path d="M44,0 H356 A18,18 0 0 1 374,18 V516 A46,46 0 0 1 328,562 H72 A46,46 0 0 1 26,516 V18 A18,18 0 0 1 44,0 Z" fill="#0b0b0d" stroke="#ffffff" stroke-opacity="0.07"/><rect x="60" y="1" width="280" height="1.5" fill="url(#topline)"/><rect x="158" y="9" width="84" height="17" rx="8.5" fill="#000000"/><circle cx="200" cy="17.5" r="2.1" fill="#23232a"/><rect x="146.0" y="64" width="16" height="3" rx="1.5" fill="#ffffff" fill-opacity="0.14"/><rect x="169.0" y="64" width="16" height="3" rx="1.5" fill="#ffffff" fill-opacity="0.14"/><rect x="192.0" y="64" width="16" height="3" rx="1.5" fill="#0A84FF" fill-opacity="1"/><rect x="215.0" y="64" width="16" height="3" rx="1.5" fill="#ffffff" fill-opacity="0.14"/><rect x="238.0" y="64" width="16" height="3" rx="1.5" fill="#ffffff" fill-opacity="0.14"/><text x="200" y="132" font-family="SF Pro Display, -apple-system, Helvetica, Arial, sans-serif" font-size="23" font-weight="600" fill="#f3f3f5" text-anchor="middle" letter-spacing="-0.3">Your music, in the notch</text><text x="200" y="162" font-family="SF Pro Text, -apple-system, Helvetica, Arial, sans-serif" font-size="13.5" fill="#8b8b92" text-anchor="middle">Pick where Perch reads Now Playing.</text><rect x="64" y="200" width="272" height="48" rx="13" fill="#0A84FF" fill-opacity="0.10" stroke="#0A84FF" stroke-opacity="0.9" stroke-width="1.5"/><circle cx="86" cy="224" r="5" fill="#0A84FF"/><text x="104" y="229" font-family="SF Pro Text, -apple-system, Helvetica, Arial, sans-serif" font-size="14" font-weight="500" fill="#f3f3f5" text-anchor="start">Now Playing</text><circle cx="314" cy="224" r="9" fill="#0A84FF"/><path d="M310 224 l3 3 5 -6" stroke="#fff" stroke-width="2" fill="none" stroke-linecap="round" stroke-linejoin="round"/><rect x="64" y="256" width="272" height="48" rx="13" fill="#ffffff" fill-opacity="0.035" stroke="#ffffff" stroke-opacity="0.07" stroke-width="1"/><circle cx="86" cy="280" r="5" fill="#1DB954"/><text x="104" y="285" font-family="SF Pro Text, -apple-system, Helvetica, Arial, sans-serif" font-size="14" font-weight="500" fill="#f3f3f5" text-anchor="start">Spotify</text><circle cx="314" cy="280" r="9" fill="none" stroke="#ffffff" stroke-opacity="0.2"/><rect x="64" y="312" width="272" height="48" rx="13" fill="#ffffff" fill-opacity="0.035" stroke="#ffffff" stroke-opacity="0.07" stroke-width="1"/><circle cx="86" cy="336" r="5" fill="#FA2D6E"/><text x="104" y="341" font-family="SF Pro Text, -apple-system, Helvetica, Arial, sans-serif" font-size="14" font-weight="500" fill="#f3f3f5" text-anchor="start">Apple Music</text><circle cx="314" cy="336" r="9" fill="none" stroke="#ffffff" stroke-opacity="0.2"/><rect x="64" y="368" width="272" height="48" rx="13" fill="#ffffff" fill-opacity="0.035" stroke="#ffffff" stroke-opacity="0.07" stroke-width="1"/><circle cx="86" cy="392" r="5" fill="#FF3B30"/><text x="104" y="397" font-family="SF Pro Text, -apple-system, Helvetica, Arial, sans-serif" font-size="14" font-weight="500" fill="#f3f3f5" text-anchor="start">YouTube Music</text><circle cx="314" cy="392" r="9" fill="none" stroke="#ffffff" stroke-opacity="0.2"/><rect x="80.0" y="452" width="240" height="46" rx="23" fill="#0A84FF"/><text x="200" y="480" font-family="SF Pro Text, -apple-system, Helvetica, Arial, sans-serif" font-size="15" font-weight="600" fill="#ffffff" text-anchor="middle">Continue</text><text x="200" y="508" font-family="SF Pro Text, -apple-system, Helvetica, Arial, sans-serif" font-size="13" font-weight="500" fill="#5c5c63" text-anchor="middle">Skip for now</text></svg>
