<svg xmlns="http://www.w3.org/2000/svg" width="400" height="600" viewBox="0 0 400 600"><defs>
<linearGradient id="backdrop" x1="0" y1="0" x2="0" y2="1">
<stop offset="0" stop-color="#0a0a0e"/><stop offset="1" stop-color="#050506"/>
</linearGradient>
<radialGradient id="halo" cx="0.5" cy="0.0" r="0.7">
<stop offset="0" stop-color="#2c5cff" stop-opacity="0.16"/>
<stop offset="1" stop-color="#2c5cff" stop-opacity="0"/>
</radialGradient>
<linearGradient id="topline" x1="0" y1="0" x2="1" y2="0">
<stop offset="0" stop-color="#ffffff" stop-opacity="0"/>
<stop offset="0.5" stop-color="#ffffff" stop-opacity="0.12"/>
<stop offset="1" stop-color="#ffffff" stop-opacity="0"/>
</linearGradient>
</defs><rect x="0" y="0" width="400" height="600" rx="0" fill="url(#backdrop)"/><ellipse cx="200" cy="-10" rx="240" ry="150" fill="url(#halo)"/><path d="M44,0 H356 A18,18 0 0 1 374,18 V516 A46,46 0 0 1 328,562 H72 A46,46 0 0 1 26,516 V18 A18,18 0 0 1 44,0 Z" fill="#0b0b0d" stroke="#ffffff" stroke-opacity="0.07"/><rect x="60" y="1" width="280" height="1.5" fill="url(#topline)"/><rect x="158" y="9" width="84" height="17" rx="8.5" fill="#000000"/><circle cx="200" cy="17.5" r="2.1" fill="#23232a"/><rect x="146.0" y="64" width="16" height="3" rx="1.5" fill="#ffffff" fill-opacity="0.14"/><rect x="169.0" y="64" width="16" height="3" rx="1.5" fill="#ffffff" fill-opacity="0.14"/><rect x="192.0" y="64" width="16" height="3" rx="1.5" fill="#ffffff" fill-opacity="0.14"/><rect x="215.0" y="64" width="16" height="3" rx="1.5" fill="#0A84FF" fill-opacity="1"/><rect x="238.0" y="64" width="16" height="3" rx="1.5" fill="#ffffff" fill-opacity="0.14"/><circle cx="200" cy="168" r="37" fill="none" stroke="#ffffff" stroke-opacity="0.09"/><g transform="translate(200,168)" stroke="#ededf0" fill="none" stroke-width="2" stroke-linecap="round" stroke-linejoin="round"><rect x="-15" y="-12" width="30" height="26" rx="4"/><line x1="-15" y1="-4" x2="15" y2="-4"/><line x1="-7" y1="-17" x2="-7" y2="-8"/><line x1="7" y1="-17" x2="7" y2="-8"/></g><text x="200" y="268" font-family="SF Pro Display, -apple-system, Helvetica, Arial, sans-serif" font-size="25" font-weight="600" fill="#f3f3f5" text-anchor="middle" letter-spacing="-0.3">Never miss what’s next</text><text x="200" y="302" font-family="SF Pro Text, -apple-system, Helvetica, Arial, sans-serif" font-size="13.5" fill="#8b8b92" text-anchor="middle">Your next event, always a glance</text><text x="200" y="322" font-family="SF Pro Text, -apple-system, Helvetica, Arial, sans-serif" font-size="13.5" fill="#8b8b92" text-anchor="middle">away inside the notch.</text><rect x="80.0" y="452" width="240" height="46" rx="23" fill="#0A84FF"/><text x="200" y="480" font-family="SF Pro Text, -apple-system, Helvetica, Arial, sans-serif" font-size="15" font-weight="600" fill="#ffffff" text-anchor="middle">Connect calendar</text><text x="200" y="508" font-family="SF Pro Text, -apple-system, Helvetica, Arial, sans-serif" font-size="13" font-weight="500" fill="#5c5c63" text-anchor="middle">Not now</text></svg>
