<svg xmlns="http://www.w3.org/2000/svg" width="400" height="600" viewBox="0 0 400 600">
<defs>
<linearGradient id="bg" x1="0" y1="0" x2="0" y2="1">
<stop offset="0" stop-color="#1f1f22"/><stop offset="1" stop-color="#161618"/>
</linearGradient>
<radialGradient id="spot" cx="0.5" cy="0.05" r="0.75">
<stop offset="0" stop-color="#ffffff" stop-opacity="0.16"/>
<stop offset="1" stop-color="#ffffff" stop-opacity="0"/>
</radialGradient>
</defs>
<rect x="0.5" y="0.5" width="399" height="599" rx="16" fill="url(#bg)" stroke="#000000" stroke-opacity="0.4"/>
<path d="M200 40 L300 470 L100 470 Z" fill="url(#spot)"/>
<rect x="0" y="0" width="400" height="600" fill="url(#spot)" opacity="0.5"/>
<circle cx="120" cy="120" r="1.6" fill="#ffffff" opacity="0.55"/>
<circle cx="300" cy="150" r="2" fill="#ffffff" opacity="0.55"/>
<circle cx="90" cy="240" r="1.4" fill="#ffffff" opacity="0.55"/>
<circle cx="320" cy="280" r="1.8" fill="#ffffff" opacity="0.55"/>
<circle cx="150" cy="90" r="1.2" fill="#ffffff" opacity="0.55"/>
<circle cx="260" cy="100" r="1.5" fill="#ffffff" opacity="0.55"/>
<circle cx="110" cy="330" r="1.6" fill="#ffffff" opacity="0.55"/>
<circle cx="300" cy="360" r="1.4" fill="#ffffff" opacity="0.55"/>
<g transform="translate(200,210)"><rect x="-50" y="-50" width="100" height="100" rx="24" fill="#2c2c30"/><rect x="-30" y="-34" width="60" height="40" rx="12" fill="#3a1d22"/><circle cx="0" cy="-8" r="13" fill="#6f4b86"/><circle cx="-5" cy="-9" r="2.3" fill="#fff"/><circle cx="5" cy="-9" r="2.3" fill="#fff"/></g>
<text x="200.0" y="320" font-family="SF Pro Display, -apple-system, Helvetica, Arial, sans-serif" font-size="34" font-weight="700" fill="#ffffff" text-anchor="middle">Perch</text>
<text x="200.0" y="352" font-family="SF Pro Display, -apple-system, Helvetica, Arial, sans-serif" font-size="20" font-weight="400" fill="#98989f" text-anchor="middle">Welcome</text>
<rect x="115.0" y="430" width="170" height="34" rx="8" fill="#0A84FF"/>
<text x="200.0" y="452.0" font-family="SF Pro Text, -apple-system, Helvetica, Arial, sans-serif" font-size="14" font-weight="600" fill="#ffffff" text-anchor="middle">Get started</text>
<text x="200.0" y="552" font-family="Snell Roundhand, cursive" font-size="13" font-weight="400" fill="#cfcfd4" text-anchor="middle">the Boring Team</text>
</svg>
