<svg xmlns="http://www.w3.org/2000/svg" width="400" height="600" viewBox="0 0 400 600">
<defs>
<linearGradient id="bg" x1="0" y1="0" x2="0" y2="1">
<stop offset="0" stop-color="#1f1f22"/><stop offset="1" stop-color="#161618"/>
</linearGradient>
<radialGradient id="spot" cx="0.5" cy="0.05" r="0.75">
<stop offset="0" stop-color="#ffffff" stop-opacity="0.16"/>
<stop offset="1" stop-color="#ffffff" stop-opacity="0"/>
</radialGradient>
</defs>
<rect x="0.5" y="0.5" width="399" height="599" rx="16" fill="url(#bg)" stroke="#000000" stroke-opacity="0.4"/>
<circle cx="200.0" cy="130" r="44" fill="#0A84FF" fill-opacity="0.14"/><g transform="translate(200.0,130)" stroke="#0A84FF" fill="none" stroke-width="2.4" stroke-linecap="round" stroke-linejoin="round"><path d="M-2 8 V-8 a3 3 0 0 1 6 0 V-2 M4 -4 a3 3 0 0 1 6 0 V6 a12 12 0 0 1 -12 12 a12 12 0 0 1 -10 -7 l-3 -6 a2.5 2.5 0 0 1 4 -3 l3 4 M-8 -2 a3 3 0 0 1 6 0 M-2 -4 a3 3 0 0 1 6 0"/></g>
<rect x="155.7" y="196" width="88.60000000000001" height="18" rx="9" fill="none" stroke="#3a3a3e" stroke-width="1"/><text x="200.0" y="209" font-family="SF Pro Text, -apple-system, Helvetica, Arial, sans-serif" font-size="10" font-weight="600" fill="#6b6b71" text-anchor="middle" letter-spacing="0.4">ACCESSIBILITY</text>
<text x="200.0" y="230" font-family="SF Pro Display, -apple-system, Helvetica, Arial, sans-serif" font-size="23" font-weight="600" fill="#ffffff" text-anchor="middle">Let Perch act for you</text>
<text x="200.0" y="266" font-family="SF Pro Text, -apple-system, Helvetica, Arial, sans-serif" font-size="13" font-weight="400" fill="#98989f" text-anchor="middle">Accessibility lets Perch move the cursor,</text>
<text x="200.0" y="286" font-family="SF Pro Text, -apple-system, Helvetica, Arial, sans-serif" font-size="13" font-weight="400" fill="#98989f" text-anchor="middle">click, and type to carry out tasks — and to</text>
<text x="200.0" y="306" font-family="SF Pro Text, -apple-system, Helvetica, Arial, sans-serif" font-size="13" font-weight="400" fill="#98989f" text-anchor="middle">replace the system HUD with its own.</text>
<g transform="translate(67.9,343)" stroke="#6b6b71" fill="none" stroke-width="1.4"><path d="M6 1 L11 3 V7 C11 10 8.5 12 6 13 C3.5 12 1 10 1 7 V3 Z"/><rect x="3.6" y="6" width="4.8" height="4" rx="1" fill="#6b6b71" stroke="none"/></g><text x="87.9" y="356" font-family="SF Pro Text, -apple-system, Helvetica, Arial, sans-serif" font-size="11" font-weight="400" fill="#6b6b71" text-anchor="start">Used only to act on your behalf, on request.</text>
<rect x="62.0" y="486" width="132" height="34" rx="8" fill="none" stroke="#3a3a3e" stroke-width="1.5"/>
<text x="128.0" y="508.0" font-family="SF Pro Text, -apple-system, Helvetica, Arial, sans-serif" font-size="14" font-weight="500" fill="#ffffff" text-anchor="middle">Not Now</text>
<rect x="206.0" y="486" width="132" height="34" rx="8" fill="#0A84FF"/>
<text x="272.0" y="508.0" font-family="SF Pro Text, -apple-system, Helvetica, Arial, sans-serif" font-size="14" font-weight="600" fill="#ffffff" text-anchor="middle">Open Settings</text>
<text x="200.0" y="548" font-family="SF Pro Text, -apple-system, Helvetica, Arial, sans-serif" font-size="11" font-weight="400" fill="#6b6b71" text-anchor="middle">Opens System Settings → Privacy → Accessibility</text>
</svg>
